<svg xmlns="http://www.w3.org/2000/svg" xmlns:xlink="http://www.w3.org/1999/xlink" width="280" zoomAndPan="magnify" viewBox="0 0 210 67.499998" height="90" preserveAspectRatio="xMidYMid meet" version="1.0"><defs><g/></defs><g fill="#10b981" fill-opacity="1"><g transform="translate(0.870524, 47.444785)"><g><path d="M 16.53125 0.8125 C 14.40625 0.8125 12.441406 0.441406 10.640625 -0.296875 C 8.835938 -1.035156 7.285156 -2.070312 5.984375 -3.40625 C 4.679688 -4.738281 3.660156 -6.3125 2.921875 -8.125 C 2.179688 -9.9375 1.8125 -11.929688 1.8125 -14.109375 C 1.8125 -16.285156 2.179688 -18.28125 2.921875 -20.09375 C 3.660156 -21.90625 4.679688 -23.476562 5.984375 -24.8125 C 7.285156 -26.144531 8.835938 -27.179688 10.640625 -27.921875 C 12.441406 -28.660156 14.40625 -29.03125 16.53125 -29.03125 C 17.957031 -29.03125 19.242188 -28.878906 20.390625 -28.578125 C 21.546875 -28.285156 22.585938 -27.894531 23.515625 -27.40625 C 24.441406 -26.925781 25.253906 -26.375 25.953125 -25.75 C 26.660156 -25.132812 27.269531 -24.503906 27.78125 -23.859375 C 28.988281 -22.359375 29.875 -20.65625 30.4375 -18.75 L 26.8125 -18.75 C 26.300781 -20.007812 25.585938 -21.148438 24.671875 -22.171875 C 24.265625 -22.597656 23.804688 -23.015625 23.296875 -23.421875 C 22.785156 -23.828125 22.191406 -24.191406 21.515625 -24.515625 C 20.847656 -24.835938 20.097656 -25.097656 19.265625 -25.296875 C 18.429688 -25.492188 17.519531 -25.59375 16.53125 -25.59375 C 14.914062 -25.59375 13.425781 -25.316406 12.0625 -24.765625 C 10.707031 -24.222656 9.539062 -23.445312 8.5625 -22.4375 C 7.582031 -21.425781 6.816406 -20.210938 6.265625 -18.796875 C 5.710938 -17.390625 5.4375 -15.828125 5.4375 -14.109375 C 5.4375 -12.390625 5.710938 -10.820312 6.265625 -9.40625 C 6.816406 -8 7.582031 -6.789062 8.5625 -5.78125 C 9.539062 -4.769531 10.707031 -3.988281 12.0625 -3.4375 C 13.425781 -2.894531 14.914062 -2.625 16.53125 -2.625 C 17.550781 -2.625 18.488281 -2.726562 19.34375 -2.9375 C 20.207031 -3.15625 20.984375 -3.4375 21.671875 -3.78125 C 22.359375 -4.132812 22.960938 -4.53125 23.484375 -4.96875 C 24.003906 -5.414062 24.46875 -5.867188 24.875 -6.328125 C 25.789062 -7.398438 26.503906 -8.648438 27.015625 -10.078125 L 30.640625 -10.078125 C 29.992188 -8.035156 29.050781 -6.222656 27.8125 -4.640625 C 27.28125 -3.941406 26.65625 -3.269531 25.9375 -2.625 C 25.226562 -1.976562 24.410156 -1.398438 23.484375 -0.890625 C 22.554688 -0.378906 21.515625 0.03125 20.359375 0.34375 C 19.203125 0.65625 17.925781 0.8125 16.53125 0.8125 Z M 16.53125 0.8125 "/></g></g></g><g fill="#10b981" fill-opacity="1"><g transform="translate(33.118917, 47.444785)"><g><path d="M 2.828125 -28.21875 L 6.046875 -28.21875 L 6.046875 -3.03125 L 10.6875 -3.03125 L 10.6875 0 L 2.828125 0 Z M 2.828125 -28.21875 "/></g></g></g><g fill="#10b981" fill-opacity="1"><g transform="translate(44.204295, 47.444785)"><g><path d="M 2.828125 -20.15625 L 6.046875 -20.15625 L 6.046875 0 L 2.828125 0 Z M 4.4375 -23.984375 C 3.8125 -23.984375 3.285156 -24.195312 2.859375 -24.625 C 2.429688 -25.0625 2.21875 -25.585938 2.21875 -26.203125 C 2.21875 -26.816406 2.429688 -27.335938 2.859375 -27.765625 C 3.285156 -28.203125 3.8125 -28.421875 4.4375 -28.421875 C 5.050781 -28.421875 5.570312 -28.203125 6 -27.765625 C 6.4375 -27.335938 6.65625 -26.816406 6.65625 -26.203125 C 6.65625 -25.585938 6.4375 -25.0625 6 -24.625 C 5.570312 -24.195312 5.050781 -23.984375 4.4375 -23.984375 Z M 4.4375 -23.984375 "/></g></g></g><g fill="#10b981" fill-opacity="1"><g transform="translate(53.072613, 47.444785)"><g><path d="M 11.6875 0.40625 C 10.257812 0.40625 8.9375 0.144531 7.71875 -0.375 C 6.5 -0.90625 5.4375 -1.632812 4.53125 -2.5625 C 3.632812 -3.488281 2.921875 -4.597656 2.390625 -5.890625 C 1.867188 -7.179688 1.609375 -8.578125 1.609375 -10.078125 C 1.609375 -11.578125 1.867188 -12.972656 2.390625 -14.265625 C 2.921875 -15.554688 3.632812 -16.664062 4.53125 -17.59375 C 5.4375 -18.519531 6.5 -19.242188 7.71875 -19.765625 C 8.9375 -20.296875 10.257812 -20.5625 11.6875 -20.5625 C 12.6875 -20.5625 13.59375 -20.457031 14.40625 -20.25 C 15.226562 -20.050781 15.960938 -19.785156 16.609375 -19.453125 C 17.253906 -19.117188 17.816406 -18.734375 18.296875 -18.296875 C 18.785156 -17.867188 19.203125 -17.441406 19.546875 -17.015625 C 20.378906 -15.960938 20.984375 -14.789062 21.359375 -13.5 L 18.140625 -13.5 C 17.816406 -14.257812 17.375 -14.929688 16.8125 -15.515625 C 16.320312 -16.023438 15.660156 -16.488281 14.828125 -16.90625 C 13.992188 -17.320312 12.945312 -17.53125 11.6875 -17.53125 C 10.71875 -17.53125 9.816406 -17.347656 8.984375 -16.984375 C 8.148438 -16.628906 7.425781 -16.117188 6.8125 -15.453125 C 6.195312 -14.796875 5.710938 -14.007812 5.359375 -13.09375 C 5.015625 -12.1875 4.84375 -11.179688 4.84375 -10.078125 C 4.84375 -8.953125 5.03125 -7.929688 5.40625 -7.015625 C 5.78125 -6.097656 6.273438 -5.316406 6.890625 -4.671875 C 7.515625 -4.023438 8.238281 -3.519531 9.0625 -3.15625 C 9.894531 -2.800781 10.769531 -2.625 11.6875 -2.625 C 13.007812 -2.625 14.09375 -2.847656 14.9375 -3.296875 C 15.78125 -3.753906 16.457031 -4.269531 16.96875 -4.84375 C 17.5625 -5.488281 18.019531 -6.226562 18.34375 -7.0625 L 21.5625 -7.0625 C 21.1875 -5.632812 20.570312 -4.382812 19.71875 -3.3125 C 19.34375 -2.851562 18.910156 -2.398438 18.421875 -1.953125 C 17.941406 -1.515625 17.367188 -1.117188 16.703125 -0.765625 C 16.046875 -0.410156 15.300781 -0.128906 14.46875 0.078125 C 13.632812 0.296875 12.707031 0.40625 11.6875 0.40625 Z M 11.6875 0.40625 "/></g></g></g><g fill="#10b981" fill-opacity="1"><g transform="translate(75.848048, 47.444785)"><g><path d="M 2.828125 -28.21875 L 6.046875 -28.21875 L 6.046875 -12.09375 L 10.078125 -12.09375 L 16.53125 -20.15625 L 20.359375 -20.15625 L 12.90625 -10.6875 L 20.96875 0 L 16.9375 0 L 10.078125 -9.078125 L 6.046875 -9.078125 L 6.046875 0 L 2.828125 0 Z M 2.828125 -28.21875 "/></g></g></g><g fill="#5e9918" fill-opacity="1"><g transform="translate(97.029006, 47.444785)"><g><path d="M 10.078125 -24.796875 L 0.40625 -24.796875 L 0.40625 -28.21875 L 23.375 -28.21875 L 23.375 -24.796875 L 13.703125 -24.796875 L 13.703125 0 L 10.078125 0 Z M 10.078125 -24.796875 "/></g></g></g><g fill="#5e9918" fill-opacity="1"><g transform="translate(120.812201, 47.444785)"><g><path d="M 2.828125 -20.15625 L 6.046875 -20.15625 L 6.046875 -16.9375 L 6.09375 -16.9375 C 6.4375 -17.582031 6.890625 -18.144531 7.453125 -18.625 C 7.941406 -19.050781 8.570312 -19.445312 9.34375 -19.8125 C 10.125 -20.175781 11.109375 -20.359375 12.296875 -20.359375 L 14.71875 -20.359375 L 14.71875 -17.140625 L 12.296875 -17.140625 C 11.378906 -17.140625 10.535156 -16.984375 9.765625 -16.671875 C 9.003906 -16.359375 8.347656 -15.925781 7.796875 -15.375 C 7.242188 -14.820312 6.8125 -14.160156 6.5 -13.390625 C 6.195312 -12.628906 6.046875 -11.796875 6.046875 -10.890625 L 6.046875 0 L 2.828125 0 Z M 2.828125 -20.15625 "/></g></g></g><g fill="#5e9918" fill-opacity="1"><g transform="translate(136.130197, 47.444785)"><g><path d="M 11.28125 0.40625 C 9.96875 0.40625 8.726562 0.144531 7.5625 -0.375 C 6.394531 -0.90625 5.363281 -1.632812 4.46875 -2.5625 C 3.582031 -3.488281 2.882812 -4.597656 2.375 -5.890625 C 1.863281 -7.179688 1.609375 -8.578125 1.609375 -10.078125 C 1.609375 -11.578125 1.863281 -12.972656 2.375 -14.265625 C 2.882812 -15.554688 3.582031 -16.664062 4.46875 -17.59375 C 5.363281 -18.519531 6.394531 -19.242188 7.5625 -19.765625 C 8.726562 -20.296875 9.96875 -20.5625 11.28125 -20.5625 C 12.601562 -20.5625 13.71875 -20.375 14.625 -20 C 15.539062 -19.625 16.285156 -19.207031 16.859375 -18.75 C 17.441406 -18.289062 17.859375 -17.863281 18.109375 -17.46875 C 18.367188 -17.082031 18.5 -16.890625 18.5 -16.890625 L 18.546875 -16.890625 L 18.546875 -20.15625 L 21.765625 -20.15625 L 21.765625 0 L 18.546875 0 L 18.546875 -3.21875 L 18.5 -3.21875 C 18.5 -3.21875 18.367188 -3.023438 18.109375 -2.640625 C 17.859375 -2.253906 17.441406 -1.835938 16.859375 -1.390625 C 16.285156 -0.941406 15.539062 -0.53125 14.625 -0.15625 C 13.71875 0.21875 12.601562 0.40625 11.28125 0.40625 Z M 11.6875 -2.625 C 12.65625 -2.625 13.554688 -2.800781 14.390625 -3.15625 C 15.222656 -3.519531 15.945312 -4.03125 16.5625 -4.6875 C 17.1875 -5.351562 17.671875 -6.140625 18.015625 -7.046875 C 18.367188 -7.960938 18.546875 -8.972656 18.546875 -10.078125 C 18.546875 -11.179688 18.367188 -12.1875 18.015625 -13.09375 C 17.671875 -14.007812 17.1875 -14.796875 16.5625 -15.453125 C 15.945312 -16.117188 15.222656 -16.628906 14.390625 -16.984375 C 13.554688 -17.347656 12.65625 -17.53125 11.6875 -17.53125 C 10.71875 -17.53125 9.816406 -17.347656 8.984375 -16.984375 C 8.148438 -16.628906 7.425781 -16.117188 6.8125 -15.453125 C 6.195312 -14.796875 5.710938 -14.007812 5.359375 -13.09375 C 5.015625 -12.1875 4.84375 -11.179688 4.84375 -10.078125 C 4.84375 -8.972656 5.015625 -7.960938 5.359375 -7.046875 C 5.710938 -6.140625 6.195312 -5.351562 6.8125 -4.6875 C 7.425781 -4.03125 8.148438 -3.519531 8.984375 -3.15625 C 9.816406 -2.800781 10.71875 -2.625 11.6875 -2.625 Z M 11.6875 -2.625 "/></g></g></g><g fill="#5e9918" fill-opacity="1"><g transform="translate(160.719592, 47.444785)"><g><path d="M 11.28125 0.40625 C 9.96875 0.40625 8.726562 0.144531 7.5625 -0.375 C 6.394531 -0.90625 5.363281 -1.632812 4.46875 -2.5625 C 3.582031 -3.488281 2.882812 -4.597656 2.375 -5.890625 C 1.863281 -7.179688 1.609375 -8.578125 1.609375 -10.078125 C 1.609375 -11.578125 1.863281 -12.972656 2.375 -14.265625 C 2.882812 -15.554688 3.582031 -16.664062 4.46875 -17.59375 C 5.363281 -18.519531 6.394531 -19.242188 7.5625 -19.765625 C 8.726562 -20.296875 9.96875 -20.5625 11.28125 -20.5625 C 12.601562 -20.5625 13.71875 -20.375 14.625 -20 C 15.539062 -19.625 16.285156 -19.210938 16.859375 -18.765625 C 17.441406 -18.316406 17.859375 -17.898438 18.109375 -17.515625 C 18.367188 -17.128906 18.5 -16.9375 18.5 -16.9375 L 18.546875 -16.9375 L 18.546875 -28.21875 L 21.765625 -28.21875 L 21.765625 0 L 18.546875 0 L 18.546875 -3.21875 L 18.5 -3.21875 C 18.5 -3.21875 18.367188 -3.023438 18.109375 -2.640625 C 17.859375 -2.253906 17.441406 -1.835938 16.859375 -1.390625 C 16.285156 -0.941406 15.539062 -0.53125 14.625 -0.15625 C 13.71875 0.21875 12.601562 0.40625 11.28125 0.40625 Z M 11.6875 -2.625 C 12.65625 -2.625 13.554688 -2.800781 14.390625 -3.15625 C 15.222656 -3.519531 15.945312 -4.03125 16.5625 -4.6875 C 17.1875 -5.351562 17.671875 -6.140625 18.015625 -7.046875 C 18.367188 -7.960938 18.546875 -8.972656 18.546875 -10.078125 C 18.546875 -11.179688 18.367188 -12.1875 18.015625 -13.09375 C 17.671875 -14.007812 17.1875 -14.796875 16.5625 -15.453125 C 15.945312 -16.117188 15.222656 -16.628906 14.390625 -16.984375 C 13.554688 -17.347656 12.65625 -17.53125 11.6875 -17.53125 C 10.71875 -17.53125 9.816406 -17.347656 8.984375 -16.984375 C 8.148438 -16.628906 7.425781 -16.117188 6.8125 -15.453125 C 6.195312 -14.796875 5.710938 -14.007812 5.359375 -13.09375 C 5.015625 -12.1875 4.84375 -11.179688 4.84375 -10.078125 C 4.84375 -8.972656 5.015625 -7.960938 5.359375 -7.046875 C 5.710938 -6.140625 6.195312 -5.351562 6.8125 -4.6875 C 7.425781 -4.03125 8.148438 -3.519531 8.984375 -3.15625 C 9.816406 -2.800781 10.71875 -2.625 11.6875 -2.625 Z M 11.6875 -2.625 "/></g></g></g><g fill="#5e9918" fill-opacity="1"><g transform="translate(185.308987, 47.444785)"><g><path d="M 11.890625 0.40625 C 10.441406 0.40625 9.082031 0.144531 7.8125 -0.375 C 6.550781 -0.90625 5.460938 -1.632812 4.546875 -2.5625 C 3.640625 -3.488281 2.921875 -4.597656 2.390625 -5.890625 C 1.867188 -7.179688 1.609375 -8.578125 1.609375 -10.078125 C 1.609375 -11.578125 1.867188 -12.972656 2.390625 -14.265625 C 2.921875 -15.554688 3.640625 -16.664062 4.546875 -17.59375 C 5.460938 -18.519531 6.550781 -19.242188 7.8125 -19.765625 C 9.082031 -20.296875 10.441406 -20.5625 11.890625 -20.5625 C 13.335938 -20.5625 14.691406 -20.296875 15.953125 -19.765625 C 17.222656 -19.242188 18.3125 -18.523438 19.21875 -17.609375 C 20.132812 -16.703125 20.851562 -15.613281 21.375 -14.34375 C 21.90625 -13.082031 22.171875 -11.726562 22.171875 -10.28125 L 22.171875 -9.078125 L 4.84375 -9.078125 C 4.945312 -8.128906 5.195312 -7.257812 5.59375 -6.46875 C 6 -5.675781 6.507812 -5 7.125 -4.4375 C 7.75 -3.875 8.46875 -3.429688 9.28125 -3.109375 C 10.101562 -2.785156 10.972656 -2.625 11.890625 -2.625 C 13.097656 -2.625 14.117188 -2.8125 14.953125 -3.1875 C 15.785156 -3.5625 16.472656 -3.976562 17.015625 -4.4375 C 17.628906 -4.945312 18.140625 -5.550781 18.546875 -6.25 L 21.765625 -6.25 C 21.285156 -4.988281 20.601562 -3.875 19.71875 -2.90625 C 18.9375 -2.070312 17.910156 -1.3125 16.640625 -0.625 C 15.378906 0.0625 13.796875 0.40625 11.890625 0.40625 Z M 18.75 -11.890625 C 18.632812 -12.640625 18.394531 -13.359375 18.03125 -14.046875 C 17.675781 -14.734375 17.203125 -15.332031 16.609375 -15.84375 C 16.015625 -16.351562 15.320312 -16.757812 14.53125 -17.0625 C 13.738281 -17.375 12.859375 -17.53125 11.890625 -17.53125 C 10.921875 -17.53125 10.039062 -17.375 9.25 -17.0625 C 8.457031 -16.757812 7.757812 -16.351562 7.15625 -15.84375 C 6.550781 -15.332031 6.0625 -14.734375 5.6875 -14.046875 C 5.3125 -13.359375 5.054688 -12.640625 4.921875 -11.890625 Z M 18.75 -11.890625 "/></g></g></g></svg>